<svg width="512" height="512" viewBox="0 0 512 512" fill="none" xmlns="http://www.w3.org/2000/svg">
<path d="M255.66 112C177.72 112 97.77 157.11 34.83 247.33C33.0334 249.934 32.0489 253.011 32.0009 256.174C31.9528 259.337 32.8434 262.443 34.56 265.1C82.92 340.8 161.8 400 255.66 400C348.5 400 429 340.62 477.45 264.75C479.127 262.145 480.018 259.113 480.018 256.015C480.018 252.917 479.127 249.885 477.45 247.28C428.89 172.28 347.8 112 255.66 112Z" stroke="#BBBBBB" stroke-width="32" stroke-linecap="round" stroke-linejoin="round"/>
<path d="M256 336C300.183 336 336 300.183 336 256C336 211.817 300.183 176 256 176C211.817 176 176 211.817 176 256C176 300.183 211.817 336 256 336Z" stroke="#BBBBBB" stroke-width="32" stroke-miterlimit="10"/>
</svg>
