<svg width="481" height="384" viewBox="0 0 481 384" fill="none" xmlns="http://www.w3.org/2000/svg">
<path d="M417 384C414.898 384.003 412.817 383.591 410.876 382.786C408.935 381.981 407.172 380.799 405.69 379.31L53.6899 27.3099C50.816 24.2849 49.2374 20.2569 49.2909 16.0847C49.3443 11.9125 51.0254 7.92626 53.9758 4.97584C56.9263 2.02542 60.9125 0.344281 65.0847 0.290864C69.2569 0.237446 73.2849 1.81598 76.3099 4.6899L428.31 356.69C430.546 358.928 432.069 361.778 432.685 364.88C433.302 367.983 432.985 371.199 431.775 374.122C430.565 377.045 428.515 379.543 425.885 381.301C423.255 383.059 420.163 383.998 417 384V384Z" fill="#BBBBBB"/>
<path d="M240.66 320C199.17 320 159.16 307.72 121.74 283.5C87.6699 261.5 56.9999 229.99 33.0399 192.5V192.42C52.9799 163.85 74.8199 139.69 98.2799 120.21C98.4921 120.033 98.6653 119.813 98.7883 119.566C98.9114 119.318 98.9817 119.047 98.9949 118.771C99.008 118.495 98.9637 118.219 98.8648 117.96C98.7658 117.702 98.6143 117.467 98.4199 117.27L78.4999 97.3802C78.1459 97.0233 77.6706 96.8128 77.1684 96.7905C76.6662 96.7683 76.1741 96.936 75.7899 97.2602C50.8699 118.26 27.7399 144.02 6.70992 174.18C3.09177 179.373 1.09911 185.525 0.985157 191.853C0.8712 198.181 2.64109 204.4 6.06992 209.72C32.4799 251.05 66.4699 285.86 104.35 310.37C147 338 192.9 352 240.66 352C266.44 351.92 292.037 347.672 316.46 339.42C316.782 339.311 317.071 339.121 317.3 338.869C317.528 338.617 317.688 338.311 317.766 337.979C317.843 337.648 317.834 337.302 317.74 336.975C317.646 336.648 317.471 336.35 317.23 336.11L295.65 314.53C295.153 314.046 294.539 313.699 293.867 313.523C293.196 313.348 292.49 313.35 291.82 313.53C275.107 317.834 257.918 320.008 240.66 320V320Z" fill="#BBBBBB"/>
<path d="M475.84 174.6C449.38 133.68 415.05 98.92 376.57 74.07C334 46.55 287 32 240.66 32C215.154 32.0453 189.837 36.3825 165.77 44.83C165.449 44.9416 165.162 45.133 164.936 45.3861C164.71 45.6392 164.552 45.9458 164.477 46.2769C164.402 46.6081 164.412 46.9528 164.507 47.2788C164.602 47.6047 164.779 47.9011 165.02 48.14L186.57 69.69C187.072 70.1832 187.694 70.5353 188.376 70.7108C189.057 70.8864 189.772 70.8792 190.45 70.69C206.82 66.2618 223.702 64.0124 240.66 64C281.35 64 321.24 76.43 359.21 101C393.92 123.4 424.95 154.88 448.97 192C448.988 192.023 448.997 192.051 448.997 192.08C448.997 192.109 448.988 192.137 448.97 192.16C431.534 219.609 409.897 244.151 384.85 264.89C384.635 265.067 384.46 265.286 384.335 265.535C384.21 265.783 384.139 266.054 384.124 266.332C384.11 266.609 384.154 266.887 384.253 267.147C384.352 267.406 384.504 267.642 384.7 267.84L404.6 287.73C404.952 288.086 405.425 288.296 405.925 288.32C406.425 288.344 406.915 288.18 407.3 287.86C434.04 265.345 457.187 238.88 475.94 209.38C479.255 204.182 481.007 198.141 480.99 191.975C480.972 185.81 479.185 179.779 475.84 174.6V174.6Z" fill="#BBBBBB"/>
<path d="M241 96C233.809 95.9961 226.641 96.8012 219.63 98.4C219.276 98.4735 218.948 98.6417 218.682 98.8866C218.416 99.1315 218.221 99.444 218.119 99.7908C218.016 100.138 218.01 100.506 218.1 100.856C218.19 101.206 218.373 101.526 218.63 101.78L331.22 214.34C331.474 214.597 331.794 214.78 332.144 214.87C332.494 214.96 332.862 214.954 333.209 214.851C333.556 214.749 333.868 214.554 334.113 214.288C334.358 214.022 334.526 213.694 334.6 213.34C337.806 199.28 337.802 184.679 334.591 170.621C331.38 156.563 325.042 143.409 316.05 132.135C307.058 120.862 295.641 111.76 282.648 105.504C269.656 99.2481 255.42 95.9997 241 96V96Z" fill="#BBBBBB"/>
<path d="M150.78 169.66C150.526 169.403 150.206 169.219 149.856 169.129C149.506 169.039 149.138 169.046 148.791 169.149C148.444 169.251 148.131 169.446 147.887 169.712C147.642 169.978 147.473 170.306 147.4 170.66C143.773 186.503 144.229 203.008 148.723 218.628C153.218 234.247 161.605 248.469 173.097 259.962C184.59 271.455 198.813 279.842 214.432 284.336C230.052 288.831 246.556 289.286 262.4 285.66C262.754 285.586 263.082 285.418 263.348 285.173C263.614 284.928 263.809 284.616 263.911 284.269C264.014 283.922 264.02 283.554 263.93 283.204C263.84 282.853 263.657 282.534 263.4 282.28L150.78 169.66Z" fill="#BBBBBB"/>
</svg>
